<?xml version="1.0" encoding="UTF-8" standalone="no"?>
<!-- Created with Inkscape (http://www.inkscape.org/) -->

<svg
   width="210mm"
   height="297mm"
   viewBox="0 0 210 297"
   version="1.1"
   id="svg5"
   xml:space="preserve"
   inkscape:version="1.2.2 (732a01da63, 2022-12-09)"
   sodipodi:docname="fort.svg"
   inkscape:export-filename="fort_gray.png"
   inkscape:export-xdpi="5.4186673"
   inkscape:export-ydpi="5.4186673"
   xmlns:inkscape="http://www.inkscape.org/namespaces/inkscape"
   xmlns:sodipodi="http://sodipodi.sourceforge.net/DTD/sodipodi-0.dtd"
   xmlns="http://www.w3.org/2000/svg"
   xmlns:svg="http://www.w3.org/2000/svg"><sodipodi:namedview
     id="namedview7"
     pagecolor="#ffffff"
     bordercolor="#999999"
     borderopacity="1"
     inkscape:showpageshadow="0"
     inkscape:pageopacity="0"
     inkscape:pagecheckerboard="0"
     inkscape:deskcolor="#d1d1d1"
     inkscape:document-units="mm"
     showgrid="true"
     inkscape:zoom="1.0885159"
     inkscape:cx="435.45529"
     inkscape:cy="536.96965"
     inkscape:window-width="1920"
     inkscape:window-height="1051"
     inkscape:window-x="-9"
     inkscape:window-y="-9"
     inkscape:window-maximized="1"
     inkscape:current-layer="layer2"
     showguides="true"><inkscape:grid
       type="xygrid"
       id="grid9" /></sodipodi:namedview><defs
     id="defs2"><linearGradient
       id="linearGradient6752"
       inkscape:swatch="solid"><stop
         style="stop-color:#000000;stop-opacity:1;"
         offset="0"
         id="stop6750" /></linearGradient><linearGradient
       id="linearGradient6741"
       inkscape:swatch="solid"><stop
         style="stop-color:#000000;stop-opacity:1;"
         offset="0"
         id="stop6739" /></linearGradient><linearGradient
       id="linearGradient4809"
       inkscape:swatch="solid"><stop
         style="stop-color:#593c9c;stop-opacity:1;"
         offset="0"
         id="stop4807" /></linearGradient><linearGradient
       id="linearGradient800"
       inkscape:swatch="solid"><stop
         style="stop-color:#000000;stop-opacity:1;"
         offset="0"
         id="stop798" /></linearGradient><filter
       inkscape:collect="always"
       style="color-interpolation-filters:sRGB"
       id="filter7869"
       x="-0.022522895"
       y="-0.025479414"
       width="1.0450458"
       height="1.0509588"><feGaussianBlur
         inkscape:collect="always"
         stdDeviation="0.24684358"
         id="feGaussianBlur7871" /></filter><filter
       inkscape:collect="always"
       style="color-interpolation-filters:sRGB"
       id="filter7873"
       x="-0.019601006"
       y="-0.019601004"
       width="1.039202"
       height="1.039202"><feGaussianBlur
         inkscape:collect="always"
         stdDeviation="0.35711672"
         id="feGaussianBlur7875" /></filter></defs><g
     inkscape:label="Background"
     inkscape:groupmode="layer"
     id="layer1" /><g
     inkscape:groupmode="layer"
     id="layer3"
     inkscape:label="Rect"
     style="display:inline"><rect
       style="fill:#008b8b;fill-opacity:1;stroke:#2f4f4f;stroke-width:4;stroke-linecap:round;stroke-linejoin:round;stroke-miterlimit:4;stroke-dasharray:none;paint-order:normal;filter:url(#filter7873)"
       id="rect6737"
       width="145.76192"
       height="145.76193"
       x="32.119038"
       y="72.119041"
       ry="23.000969" /></g><g
     inkscape:groupmode="layer"
     id="layer2"
     inkscape:label="Logo"
     style="display:inline"><g
       id="g6748"
       style="fill:#ffffff;fill-rule:evenodd;stroke:#2f4f4f;stroke-linecap:round;stroke-linejoin:round;stroke-width:3.64244071;stroke-dasharray:none;filter:url(#filter7869)"
       transform="matrix(1.0354419,0,0,1.1646871,-4.6719064,-20.847396)"><path
         style="fill:#ffffff;fill-opacity:1;fill-rule:evenodd;stroke:#2f4f4f;stroke-width:3.64244071;stroke-linecap:round;stroke-linejoin:round;stroke-miterlimit:4;stroke-dasharray:none;paint-order:markers fill stroke"
         d="m 128.30469,95.089843 -29.992192,-0.04297 c -13.902581,-0.31121 -24.842472,5.358427 -32.681421,14.037297 -7.768201,7.21022 -12.613649,16.78479 -13.29514,30.22052 l 2e-6,50.27344 c 6.234629,0.11322 11.117944,-1.91903 14.265627,-5.32813 3.683419,-3.18239 5.754845,-7.44552 6.230466,-12.46094 l 0.08594,-31.88282 c 1.075802,-7.49744 3.350675,-11.69394 6.488279,-15.29686 5.766596,-6.11055 10.20826,-8.84871 18.347656,-10.35547 l 15.082033,0.043 c 5.18463,-0.60045 8.74003,-3.30887 11.42969,-6.27343 1.85376,-1.52732 3.3281,-4.26883 4.03906,-9.453129 z"
         id="path6680"
         sodipodi:nodetypes="cccccccccccccc"
         inkscape:label="f-left" /><path
         style="fill:#ffffff;fill-opacity:1;fill-rule:evenodd;stroke:#2f4f4f;stroke-width:3.64244071;stroke-linecap:round;stroke-linejoin:round;stroke-miterlimit:4;stroke-dasharray:none;paint-order:markers fill stroke"
         d="m 83.531249,189.70319 29.992191,0.043 c 13.90258,0.31121 24.84247,-5.35843 32.68142,-14.0373 7.7682,-7.21022 12.61365,-16.78479 13.29514,-30.22052 V 95.214895 c -6.23463,-0.11322 -11.11795,1.91903 -14.26563,5.328135 -3.68342,3.18239 -5.75484,7.44552 -6.23046,12.46094 l -0.0859,31.88282 c -1.07581,7.49744 -3.35068,11.69394 -6.48828,15.29686 -5.7666,6.11055 -10.20826,8.84871 -18.34766,10.35547 l -15.082033,-0.043 c -5.184628,0.60045 -8.740028,3.30887 -11.429688,6.27343 -1.85376,1.52732 -3.3281,4.26883 -4.03906,9.45313 z"
         id="path6680-5"
         sodipodi:nodetypes="cccccccccccccc"
         inkscape:label="f-right" /><path
         style="fill:#ffffff;fill-opacity:1;fill-rule:evenodd;stroke:#2f4f4f;stroke-width:3.64244;stroke-linecap:round;stroke-linejoin:round;stroke-miterlimit:4;stroke-dasharray:none;paint-order:markers fill stroke"
         d="m 91.630858,132.51562 36.695312,0.0645 -0.31339,3.77516 c -0.61312,2.71307 -1.8856,5.72434 -3.75547,8.49856 -3.36225,3.4121 -4.6487,5.11989 -12.39343,6.76382 l -19.233947,0.39502 c -4.287379,-0.42044 -7.474329,-3.04939 -8.099611,-6.25195 l 0.01075,-7.05761 c 0.326057,-3.39328 3.985087,-6.063 7.089843,-6.18748 z"
         id="path6735"
         sodipodi:nodetypes="cccccccccc"
         inkscape:label="f-center" /></g></g></svg>
