<?xml version="1.0" encoding="UTF-8" standalone="no"?>
<!DOCTYPE svg PUBLIC "-//W3C//DTD SVG 1.1//EN" "http://www.w3.org/Graphics/SVG/1.1/DTD/svg11.dtd">
<svg width="100%" height="100%" viewBox="0 0 4267 4267" version="1.1" xmlns="http://www.w3.org/2000/svg" xmlns:xlink="http://www.w3.org/1999/xlink" xml:space="preserve" xmlns:serif="http://www.serif.com/" style="fill-rule:evenodd;clip-rule:evenodd;stroke-linejoin:round;stroke-miterlimit:2;">
    <g transform="matrix(4.16667,0,0,4.16667,0,0)">
        <g>
            <g id="Layer3">
                <g transform="matrix(0.955457,0,0,0.955457,22.8062,22.8062)">
                    <path d="M1024,0L1024,566.303C1024,819.082 819.082,1024 566.303,1024L0,1024L0,457.697C0,204.918 204.918,0 457.697,0L1024,0Z" style="fill:rgb(0,84,78);"/>
                    <path d="M1024,0L1024,566.303C1024,819.082 819.082,1024 566.303,1024L0,1024L0,457.697C0,204.918 204.918,0 457.697,0L1024,0Z" style="fill:rgb(0,84,78);"/>
                </g>
                <g transform="matrix(1,0,0,1,0.0791807,11.1285)">
                    <path d="M1024,0L1024,586.69C1024,828.21 828.21,1024 586.69,1024L0,1024L0,437.31C0,195.79 195.79,0 437.31,0L1024,0ZM981.808,42.192L479.501,42.192C363.519,42.192 252.288,88.265 170.277,170.277C88.265,252.288 42.192,363.519 42.192,479.501L42.192,981.808L544.499,981.808C660.481,981.808 771.712,935.735 853.723,853.723C935.735,771.712 981.808,660.481 981.808,544.499L981.808,42.192Z" style="fill:rgb(45,43,43);fill-opacity:0.61;"/>
                </g>
                <path d="M1024,0L1024,586.69C1024,828.21 828.21,1024 586.69,1024L0,1024L0,437.31C0,195.79 195.79,0 437.31,0L1024,0ZM981.808,42.192L479.501,42.192C363.519,42.192 252.288,88.265 170.277,170.277C88.265,252.288 42.192,363.519 42.192,479.501L42.192,981.808L544.499,981.808C660.481,981.808 771.712,935.735 853.723,853.723C935.735,771.712 981.808,660.481 981.808,544.499L981.808,42.192Z" style="fill:white;"/>
                <path d="M1024,0L1024,586.69C1024,828.21 828.21,1024 586.69,1024L0,1024L0,437.31C0,195.79 195.79,0 437.31,0L1024,0ZM1016.71,7.29L437.31,7.29C199.816,7.29 7.29,199.816 7.29,437.31C7.29,437.31 7.29,1016.71 7.29,1016.71L586.69,1016.71C824.184,1016.71 1016.71,824.184 1016.71,586.69L1016.71,7.29ZM989.098,42.192L989.098,544.499C989.098,662.415 942.257,775.5 858.878,858.878C775.5,942.257 662.415,989.098 544.499,989.098L42.192,989.098C38.166,989.098 34.902,985.834 34.902,981.808L34.902,479.501C34.902,361.585 81.743,248.5 165.122,165.122C248.5,81.743 361.585,34.902 479.501,34.902L981.808,34.902C985.834,34.902 989.098,38.166 989.098,42.192ZM981.808,42.192L479.501,42.192C363.519,42.192 252.288,88.265 170.277,170.277C88.265,252.288 42.192,363.519 42.192,479.501L42.192,981.808L544.499,981.808C660.481,981.808 771.712,935.735 853.723,853.723C935.735,771.712 981.808,660.481 981.808,544.499L981.808,42.192Z" style="fill:rgb(0,44,38);"/>
            </g>
            <g id="Layer2" transform="matrix(1,0,0,1,-0.0119354,-4.63227)">
                <g transform="matrix(1,0,0,1,0,29.6504)">
                    <g opacity="0.65">
                        <path d="M819.726,110.433C562.787,363.993 346.159,101.764 226.549,439.118C202.996,505.546 204.621,776.666 204.298,922.832C346.854,861.725 322.941,699.748 327.052,650.083C338.089,516.737 402.602,499.092 478.581,477.604C588.864,446.415 762.573,560.44 819.726,110.433Z" style="fill:rgb(45,43,43);fill-opacity:0.59;"/>
                        <path d="M705.944,469.486C673.028,856.289 474.249,590.997 352.721,793.517C326.964,370.331 641.575,607.269 705.944,469.486Z" style="fill:rgb(45,43,43);fill-opacity:0.59;"/>
                    </g>
                </g>
                <g>
                    <path d="M819.726,110.433C562.787,363.993 346.159,101.764 226.549,439.118C202.996,505.546 204.621,776.666 204.298,922.832C346.854,861.725 322.941,699.748 327.052,650.083C338.089,516.737 402.602,499.092 478.581,477.604C588.864,446.415 762.573,560.44 819.726,110.433Z" style="fill:url(#_Linear1);"/>
                    <path d="M819.726,110.433C762.573,560.44 588.864,446.415 478.581,477.604C402.602,499.092 338.089,516.737 327.052,650.083C322.941,699.748 346.854,861.725 204.298,922.832C204.621,776.666 202.996,505.546 226.549,439.118C346.159,101.764 562.787,363.993 819.726,110.433ZM810.05,129.428C685.572,243.767 570.895,242.312 472.218,250.41C422.832,254.463 377.575,260.86 337.428,287.029C297.26,313.211 262.416,359.146 233.223,441.484C210.367,505.946 211.621,764.118 211.399,911.784C273.026,881.543 299.36,830.416 310.687,780.597C322.949,726.664 317.955,674.145 319.995,649.499C324.562,594.32 338.221,558.369 357.709,533.577C386.913,496.427 429.541,484.114 476.654,470.79C510.188,461.306 549.498,464.923 589.679,462.523C627.81,460.246 666.822,452.289 701.911,419.895C748.026,377.322 787.087,293.646 810.05,129.428Z" style="fill:rgb(0,44,38);"/>
                    <path d="M705.944,469.486C673.028,856.289 474.249,590.997 352.721,793.517C326.964,370.331 641.575,607.269 705.944,469.486Z" style="fill:url(#_Linear2);"/>
                    <path d="M705.944,469.486C673.028,856.289 474.249,590.997 352.721,793.517C326.964,370.331 641.575,607.269 705.944,469.486ZM696.179,496.15C682.383,510.224 664.3,518.067 643.46,522.401C614.91,528.338 581.007,527.543 546.533,528.269C497.29,529.306 446.679,533.233 410.395,568.052C375.93,601.125 354.878,661.497 358.746,771.49C406.843,705.008 464.62,699.141 519.711,696.297C561.413,694.144 601.528,694.258 633.449,666.442C663.088,640.614 685.264,591.286 696.179,496.15Z" style="fill:rgb(0,44,38);"/>
                </g>
            </g>
        </g>
    </g>
    <defs>
        <linearGradient id="_Linear1" x1="0" y1="0" x2="1" y2="0" gradientUnits="userSpaceOnUse" gradientTransform="matrix(615.427,0,0,615.427,204.298,516.632)"><stop offset="0" style="stop-color:rgb(218,218,218);stop-opacity:1"/><stop offset="0.47" style="stop-color:white;stop-opacity:1"/><stop offset="1" style="stop-color:rgb(240,231,231);stop-opacity:1"/></linearGradient>
        <linearGradient id="_Linear2" x1="0" y1="0" x2="1" y2="0" gradientUnits="userSpaceOnUse" gradientTransform="matrix(354.718,0,0,354.718,351.226,631.501)"><stop offset="0" style="stop-color:rgb(218,218,218);stop-opacity:1"/><stop offset="0.47" style="stop-color:white;stop-opacity:1"/><stop offset="1" style="stop-color:rgb(240,231,231);stop-opacity:1"/></linearGradient>
    </defs>
</svg>
