<?xml version="1.0" encoding="UTF-8" standalone="no"?>
<!DOCTYPE svg PUBLIC "-//W3C//DTD SVG 1.1//EN" "http://www.w3.org/Graphics/SVG/1.1/DTD/svg11.dtd">
<svg width="100%" height="100%" viewBox="0 0 1024 1024" version="1.1" xmlns="http://www.w3.org/2000/svg" xmlns:xlink="http://www.w3.org/1999/xlink" xml:space="preserve" xmlns:serif="http://www.serif.com/" style="fill-rule:evenodd;clip-rule:evenodd;stroke-linejoin:round;stroke-miterlimit:2;">
    <g>
        <g id="Layer3">
            <g transform="matrix(0.955457,0,0,0.955457,22.8062,22.8062)">
                <path d="M1024,0L1024,566.303C1024,819.082 819.082,1024 566.303,1024L0,1024L0,457.697C0,204.918 204.918,0 457.697,0L1024,0Z" style="fill:rgb(4,94,94);"/>
            </g>
            <path d="M1024,0L1024,586.69C1024,828.21 828.21,1024 586.69,1024L0,1024L0,437.31C0,195.79 195.79,0 437.31,0L1024,0ZM981.808,42.192L479.501,42.192C363.519,42.192 252.288,88.265 170.277,170.277C88.265,252.288 42.192,363.519 42.192,479.501L42.192,981.808L544.499,981.808C660.481,981.808 771.712,935.735 853.723,853.723C935.735,771.712 981.808,660.481 981.808,544.499L981.808,42.192Z" style="fill:white;"/>
            <path d="M1024,0L1024,586.69C1024,828.21 828.21,1024 586.69,1024L-0,1024L-0,437.31C0,195.79 195.79,0 437.31,0L1024,0ZM1016.01,7.99L437.31,7.99C200.203,7.99 7.99,200.203 7.99,437.31C7.99,437.31 7.99,1016.01 7.99,1016.01L586.69,1016.01C823.797,1016.01 1016.01,823.797 1016.01,586.69L1016.01,7.99ZM989.799,42.192L989.799,544.499C989.799,662.6 942.883,775.863 859.373,859.373C775.863,942.883 662.6,989.799 544.499,989.799L42.192,989.799C37.779,989.799 34.201,986.221 34.201,981.808L34.201,479.501C34.201,361.4 81.117,248.137 164.627,164.627C248.137,81.117 361.4,34.201 479.501,34.201L981.808,34.201C986.221,34.201 989.799,37.779 989.799,42.192ZM981.808,42.192L479.501,42.192C363.519,42.192 252.288,88.265 170.277,170.277C88.265,252.288 42.192,363.519 42.192,479.501L42.192,981.808L544.499,981.808C660.481,981.808 771.712,935.735 853.723,853.723C935.735,771.712 981.808,660.481 981.808,544.499L981.808,42.192Z" style="fill:rgb(64,64,64);"/>
        </g>
        <g id="Layer2" transform="matrix(1,0,0,1,-0.0119354,-4.63227)">
            <path d="M819.726,110.433C562.787,363.993 346.159,101.764 226.549,439.118C202.996,505.546 204.621,776.666 204.298,922.832C346.854,861.725 322.941,699.748 327.052,650.083C338.089,516.737 402.602,499.092 478.581,477.604C588.864,446.415 762.573,560.44 819.726,110.433Z" style="fill:white;"/>
            <path d="M819.726,110.433C762.573,560.44 588.864,446.415 478.581,477.604C402.602,499.092 338.089,516.737 327.052,650.083C322.941,699.748 346.854,861.725 204.298,922.832C204.621,776.666 202.996,505.546 226.549,439.118C346.159,101.764 562.787,363.993 819.726,110.433ZM806.993,135.197C683.778,245.831 570.267,244.587 472.4,252.618C423.397,256.64 378.473,262.92 338.638,288.885C298.776,314.868 264.283,360.512 235.311,442.225C212.677,506.064 213.812,760.19 213.62,908.189C272.242,878.112 297.529,828.476 308.526,780.106C320.76,726.301 315.752,673.904 317.787,649.316C322.402,593.561 336.275,557.259 355.967,532.208C385.467,494.68 428.46,482.117 476.051,468.658C509.726,459.134 549.198,462.722 589.547,460.311C627.205,458.062 665.754,450.259 700.408,418.267C745.734,376.422 784.043,294.625 806.993,135.197Z" style="fill:rgb(64,64,64);"/>
            <path d="M819.726,110.433C562.787,363.993 346.159,101.764 226.549,439.118C202.996,505.546 204.621,776.666 204.298,922.832C346.854,861.725 322.941,699.748 327.052,650.083C338.089,516.737 402.602,499.092 478.581,477.604C588.864,446.415 762.573,560.44 819.726,110.433Z" style="fill:white;"/>
            <path d="M819.726,110.433C762.573,560.44 588.864,446.415 478.581,477.604C402.602,499.092 338.089,516.737 327.052,650.083C322.941,699.748 346.854,861.725 204.298,922.832C204.621,776.666 202.996,505.546 226.549,439.118C346.159,101.764 562.787,363.993 819.726,110.433ZM806.993,135.197C683.778,245.831 570.267,244.587 472.4,252.618C423.397,256.64 378.473,262.92 338.638,288.885C298.776,314.868 264.283,360.512 235.311,442.225C212.677,506.064 213.812,760.19 213.62,908.189C272.242,878.112 297.529,828.476 308.526,780.106C320.76,726.301 315.752,673.904 317.787,649.316C322.402,593.561 336.275,557.259 355.967,532.208C385.467,494.68 428.46,482.117 476.051,468.658C509.726,459.134 549.198,462.722 589.547,460.311C627.205,458.062 665.754,450.259 700.408,418.267C745.734,376.422 784.043,294.625 806.993,135.197Z" style="fill:rgb(64,64,64);"/>
            <path d="M819.726,110.433C562.787,363.993 346.159,101.764 226.549,439.118C202.996,505.546 204.621,776.666 204.298,922.832C346.854,861.725 322.941,699.748 327.052,650.083C338.089,516.737 402.602,499.092 478.581,477.604C588.864,446.415 762.573,560.44 819.726,110.433Z" style="fill:white;"/>
            <path d="M819.726,110.433C762.573,560.44 588.864,446.415 478.581,477.604C402.602,499.092 338.089,516.737 327.052,650.083C322.941,699.748 346.854,861.725 204.298,922.832C204.621,776.666 202.996,505.546 226.549,439.118C346.159,101.764 562.787,363.993 819.726,110.433ZM806.993,135.197C683.778,245.831 570.267,244.587 472.4,252.618C423.397,256.64 378.473,262.92 338.638,288.885C298.776,314.868 264.283,360.512 235.311,442.225C212.677,506.064 213.812,760.19 213.62,908.189C272.242,878.112 297.529,828.476 308.526,780.106C320.76,726.301 315.752,673.904 317.787,649.316C322.402,593.561 336.275,557.259 355.967,532.208C385.467,494.68 428.46,482.117 476.051,468.658C509.726,459.134 549.198,462.722 589.547,460.311C627.205,458.062 665.754,450.259 700.408,418.267C745.734,376.422 784.043,294.625 806.993,135.197Z" style="fill:rgb(64,64,64);"/>
            <path d="M705.944,469.486C673.028,856.289 474.249,590.997 352.721,793.517C326.964,370.331 641.575,607.269 705.944,469.486Z" style="fill:white;"/>
            <path d="M705.944,469.486C673.028,856.289 474.249,590.997 352.721,793.517C326.964,370.331 641.575,607.269 705.944,469.486ZM693.262,501.968C679.828,513.72 663.01,520.599 643.912,524.57C615.242,530.532 581.199,529.755 546.58,530.484C497.893,531.51 447.804,535.225 411.93,569.65C378.42,601.806 357.925,660.027 360.762,765.064C408.588,702.649 465.362,696.884 519.596,694.084C560.79,691.958 600.462,692.248 631.993,664.771C660.745,639.716 682.229,592.308 693.262,501.968Z" style="fill:rgb(64,64,64);"/>
            <path d="M705.944,469.486C673.028,856.289 474.249,590.997 352.721,793.517C326.964,370.331 641.575,607.269 705.944,469.486Z" style="fill:white;"/>
            <path d="M705.944,469.486C673.028,856.289 474.249,590.997 352.721,793.517C326.964,370.331 641.575,607.269 705.944,469.486ZM693.262,501.968C679.828,513.72 663.01,520.599 643.912,524.57C615.242,530.532 581.199,529.755 546.58,530.484C497.893,531.51 447.804,535.225 411.93,569.65C378.42,601.806 357.925,660.027 360.762,765.064C408.588,702.649 465.362,696.884 519.596,694.084C560.79,691.958 600.462,692.248 631.993,664.771C660.745,639.716 682.229,592.308 693.262,501.968Z" style="fill:rgb(64,64,64);"/>
            <path d="M705.944,469.486C673.028,856.289 474.249,590.997 352.721,793.517C326.964,370.331 641.575,607.269 705.944,469.486Z" style="fill:white;"/>
            <path d="M705.944,469.486C673.028,856.289 474.249,590.997 352.721,793.517C326.964,370.331 641.575,607.269 705.944,469.486ZM693.262,501.968C679.828,513.72 663.01,520.599 643.912,524.57C615.242,530.532 581.199,529.755 546.58,530.484C497.893,531.51 447.804,535.225 411.93,569.65C378.42,601.806 357.925,660.027 360.762,765.064C408.588,702.649 465.362,696.884 519.596,694.084C560.79,691.958 600.462,692.248 631.993,664.771C660.745,639.716 682.229,592.308 693.262,501.968Z" style="fill:rgb(64,64,64);"/>
        </g>
    </g>
</svg>
